<?xml version="1.0" encoding="UTF-8"?>
<svg width="25.795mm" height="25.473mm" version="1.1" viewBox="0 0 25.795 25.473" xmlns="http://www.w3.org/2000/svg" xmlns:cc="http://creativecommons.org/ns#" xmlns:dc="http://purl.org/dc/elements/1.1/" xmlns:rdf="http://www.w3.org/1999/02/22-rdf-syntax-ns#" xmlns:xlink="http://www.w3.org/1999/xlink">
	<defs>
		<path id="path2029-2-3" d="m6.337 275.84c1.0713 0.52259 3.1239 0.76332 5.5147 0.33923 2.3908-0.42408 4.4055-1.1317 8.1535-1.0711 3.7479 0.0607 8.5551 0.86551 10.6 1.5434 1.0225 0.33893 1.3546 0.6462 1.1975 0.92733" fill="none" stroke="#000" stroke-width=".26458px"/>
		<path id="path2057-43-2" d="m22.137 279.86c3.021-0.38589 6.0404-0.77158 7.9096-1.2403 0.93462-0.23435 1.5811-0.48934 1.7562-0.80482" fill="none" stroke="#aad400" stroke-linejoin="round" stroke-width=".265"/>
	</defs>
	<metadata>
		<rdf:RDF>
			<cc:Work rdf:about="">
				<dc:format>image/svg+xml</dc:format>
				<dc:type rdf:resource="http://purl.org/dc/dcmitype/StillImage"/>
				<dc:title/>
			</cc:Work>
		</rdf:RDF>
	</metadata>
	<g transform="translate(-64.21 -222.28)">
		<g transform="translate(58.021 -44.658)">
			<path d="m6.35 276.62v-2.64c-0.24277-0.17643 2.593-1.3557 4.4543-1.349v2.64c-1.51 0.0715-4.8293 1.1726-4.4543 1.349z" fill="#d4ff2a" stroke="#000" stroke-linejoin="round" stroke-width=".26458px"/>
			<g fill="#626262">
				<g transform="matrix(.77922 0 0 .77922 -12.945 180.4)" stroke="#303030" stroke-width=".33955px">
					<path d="m27.961 119.84-1.8709-1.8709"/>
					<path d="m28.897 118.91-1.8709-1.8709"/>
					<path d="m29.832 117.97-1.8709-1.8709"/>
					<path d="m30.768 117.04-1.8709-1.8709"/>
					<path d="m31.703 116.1-1.8709-1.8709"/>
					<path d="m32.638 115.17-1.8709-1.8709"/>
					<path d="m33.574 114.23-1.8709-1.8709"/>
					<path d="m34.509 113.29-1.8709-1.8709"/>
				</g>
				<g transform="matrix(.55099 -.55099 .55099 .55099 -71.706 228.22)" stroke="#303030" stroke-width=".33955px">
					<path d="m26.458 117.08h2.6458"/>
					<path d="m26.458 118.41h2.6458"/>
					<path d="m26.458 119.73h2.6458"/>
					<path d="m26.458 121.05h2.6458"/>
					<path d="m26.458 122.38h2.6458"/>
					<path d="m26.458 123.7h2.6458"/>
					<path d="m26.458 125.02h2.6458"/>
					<path d="m26.458 126.34h2.6458"/>
				</g>
				<path d="m7.3848 275.24 7.9375-7.9375 3.9688 3.9688 1.2267 2.364 2.7421 1.6048-7.9375 7.9375z"/>
				<g transform="matrix(-.77922 0 0 .77922 43.529 180.4)" stroke="#303030" stroke-width=".33955px">
					<path d="m31.703 116.1-1.8709-1.8709"/>
					<path d="m32.638 115.17-1.8709-1.8709"/>
					<path d="m33.574 114.23-1.8709-1.8709"/>
					<path d="m34.509 113.29-1.8709-1.8709"/>
				</g>
				<g transform="matrix(-.55099 -.55099 -.55099 .55099 102.29 228.22)" stroke="#303030" stroke-width=".33955px">
					<path d="m26.458 123.7h2.6458"/>
					<path d="m26.458 125.02h2.6458"/>
					<path d="m26.458 126.34h2.6458"/>
				</g>
			</g>
			<path d="m7.3848 275.24h1.3229l6.6146 6.6146v1.3229" fill="#fffff8" fill-opacity=".43922"/>
			<g transform="translate(-18.315 115.74)" fill-opacity=".50196" stroke-opacity=".87059">
				<path d="m25.7 159.5h1.3229l6.6146-6.6146 6.6146 6.6146h1.3229l-7.9375-7.9375z"/>
				<path d="m33.638 151.56v1.3229l6.6146 6.6146-6.6146 6.6146v1.3229l7.9375-7.9375z"/>
			</g>
			<text x="7.0843401" y="287.10092" fill="#000000" font-family="Arial" font-size="4.2333px" letter-spacing="0px" stroke-width=".26458" word-spacing="0px" style="line-height:1.25" xml:space="preserve"><tspan x="7.0843401" y="287.10092" fill="#000000" font-family="Arial" stroke-width=".26458">SooL.HLL</tspan></text>
			<text x="7.1928749" y="285.59354" fill="#000000" fill-opacity=".87059" font-family="Arial" font-size="1.9006px" letter-spacing="0px" stroke-width=".26458" word-spacing="0px" style="line-height:1.25" xml:space="preserve"><tspan x="7.1928749" y="287.30554"/><tspan x="7.1928749" y="289.68134" font-size="1.6582px">STM32 Object-Oriented Library</tspan><tspan x="7.1928749" y="292.05713" font-size="1.6582px">Hardware Level Layer</tspan></text>
			<path d="m6.337 275.84c1.0713 0.52259 3.1239 0.76332 5.5147 0.33923 2.3908-0.42408 4.4055-1.1317 8.1535-1.0711 3.7479 0.0607 8.5551 0.86551 10.6 1.5434 1.0225 0.33893 1.3546 0.6462 1.1975 0.92733" fill="none" stroke="#000" stroke-width=".26458px"/>
			<path d="m31.816 275.72c0.15718-0.28113-0.17493-0.5884-1.1975-0.92733-2.0451-0.67785-6.8522-1.4828-10.6-1.5434s-5.7627 0.64702-8.1535 1.0711c-2.3908 0.42409-4.4563 0.18995-5.5147-0.33922v2.64c1.0583 0.53499 3.1239 0.76332 5.5147 0.33923 2.3908-0.42408 4.4055-1.1317 8.1535-1.0711 3.7479 0.0607 8.5551 0.86551 10.6 1.5434 1.0225 0.33893 1.3546 0.6462 1.1975 0.92733z" fill="#002052" stroke="#000" stroke-linejoin="round" stroke-width=".26458px"/>
			<text x="0.1984375" y="-0.033072915" fill="#ccff00" font-family="sans-serif" font-size="1.4111px" letter-spacing="0px" stroke-width=".26458" word-spacing="0px" style="line-height:6.61458302px" xml:space="preserve"><textPath xlink:href="#path2029-2-3"> C++ for STM32</textPath></text>
			<path transform="matrix(.26458 0 0 .26458 -49.501 9.9892)" d="m279.04 971.63c-5.9015 0-11.244 2.3884-15.115 6.25-1.5702-1.3714-2.752-3.0177-3.9219-5.3574-1.8365 3.6729-1.9658 6.5318-0.42969 11.615-1.2386 2.707-1.9336 5.7135-1.9336 8.8848v37.436c1.7846-1.7837 3.5673-3.5664 5.3496-2.6758 1.7823 0.8906 3.5675 4.4577 5.3516 4.457 1.784-6e-4 3.5669-3.5642 5.3496-3.5644 1.7827-3e-4 3.5656 3.5651 5.3496 3.5644 1.784-6e-4 3.5688-3.5642 5.3516-3.5644 1.7827-3e-4 3.5656 3.5651 5.3496 3.5644 1.784-6e-4 3.5687-3.564 5.3516-4.4551 1.7828-0.8909 3.5661 0.8912 5.3496 2.6739v-37.436c0-3.2092-0.71159-6.2523-1.9785-8.9844 1.5048-5.0223 1.3638-7.8662-0.46094-11.516-1.1605 2.3211-2.3335 3.9592-3.8848 5.3242-3.8689-3.8409-9.1946-6.2168-15.078-6.2168zm-10.701 10.697a5.3505 5.3479 0 0 1 5.3516 5.3477 5.3505 5.3479 0 0 1-5.3516 5.3476 5.3505 5.3479 0 0 1-5.3496-5.3476 5.3505 5.3479 0 0 1 5.3496-5.3477zm21.402 0a5.3505 5.3479 0 0 1 5.3516 5.3477 5.3505 5.3479 0 0 1-5.3516 5.3476 5.3505 5.3479 0 0 1-5.3496-5.3476 5.3505 5.3479 0 0 1 5.3496-5.3477z" fill="#dc3939" stroke="#000" stroke-width="1px"/>
			<path d="m22.137 279.86c3.021-0.38589 6.0404-0.77158 7.9096-1.2403 0.93462-0.23435 1.5811-0.48934 1.7562-0.80482" fill="none" stroke="#aad400" stroke-linejoin="round" stroke-width=".265"/>
			<path d="m30.078 279.13c-1.8692 0.4687-4.8887 0.85439-7.9096 1.2403v-2.64c3.021-0.38589 6.0404-0.77158 7.9096-1.2403 0.93462-0.23435 1.5811-0.48934 1.7562-0.80482v2.64c-0.1751 0.31548-0.82157 0.57047-1.7562 0.80482z" fill="#df5" stroke="#000" stroke-linejoin="round" stroke-width=".265"/>
			<text fill="#002052" font-family="sans-serif" font-size="1.4111px" letter-spacing="0px" stroke-width=".26458" word-spacing="0px" style="line-height:6.61458302px" xml:space="preserve"><textPath fill="#002052" font-size="2.1167px" xlink:href="#path2057-43-2"> H.L.L</textPath></text>
			<circle cx="15.322" cy="269.95" r=".52917" fill="#000800" fill-opacity=".76863"/>
		</g>
	</g>
</svg>
