<?xml version="1.0" encoding="UTF-8"?>
<svg width="51.59mm" height="46.195mm" version="1.1" viewBox="0 0 51.59 46.195" xmlns="http://www.w3.org/2000/svg" xmlns:cc="http://creativecommons.org/ns#" xmlns:dc="http://purl.org/dc/elements/1.1/" xmlns:rdf="http://www.w3.org/1999/02/22-rdf-syntax-ns#" xmlns:xlink="http://www.w3.org/1999/xlink">
 <defs>
  <linearGradient id="linearGradient8513" x1="172.94" x2="26.67" y1="77.476" y2="76.313" gradientTransform="translate(638.58 497.42)" gradientUnits="userSpaceOnUse">
   <stop stop-color="#366a96" offset="0"/>
   <stop stop-color="#3679b0" offset="1"/>
  </linearGradient>
  <linearGradient id="linearGradient8510" x1="224.24" x2="-65.309" y1="144.76" y2="144.76" gradientTransform="translate(638.58 497.42)" gradientUnits="userSpaceOnUse">
   <stop stop-color="#ffc836" offset="0"/>
   <stop stop-color="#ffe873" offset="1"/>
  </linearGradient>
  <path id="path2029-64" d="m6.337 275.84c1.0713 0.52259 3.1239 0.76332 5.5147 0.33923 2.3908-0.42408 4.4055-1.1317 8.1535-1.0711 3.7479 0.0607 8.5551 0.86551 10.6 1.5434 1.0225 0.33893 1.3546 0.6462 1.1975 0.92733" fill="none" stroke="#000" stroke-width=".26458px"/>
  <path id="path2057-0" d="m22.137 279.86c3.021-0.38589 6.0404-0.77158 7.9096-1.2403 0.93462-0.23435 1.5811-0.48934 1.7562-0.80482" fill="none" stroke="#aad400" stroke-linejoin="round" stroke-width=".265"/>
 </defs>
 <metadata>
  <rdf:RDF>
   <cc:Work rdf:about="">
    <dc:format>image/svg+xml</dc:format>
    <dc:type rdf:resource="http://purl.org/dc/dcmitype/StillImage"/>
    <dc:title/>
   </cc:Work>
  </rdf:RDF>
 </metadata>
 <g transform="translate(-89.156 -108.9)">
  <g transform="matrix(2.0103 0 0 2.0058 76.581 -426.65)" stroke-width=".498">
   <path d="m6.35 276.62v-2.64c-0.24277-0.17643 2.593-1.3557 4.4543-1.349v2.64c-1.51 0.0715-4.8293 1.1726-4.4543 1.349z" fill="#d4ff2a" stroke="#000" stroke-linejoin="round" stroke-width=".13176px"/>
   <text x="11.861309" y="287.10092" fill="#000000" font-family="Arial" font-size="4.2333px" letter-spacing="0px" stroke-width=".13176" text-align="center" text-anchor="middle" word-spacing="0px" style="line-height:1.25" xml:space="preserve"><tspan x="11.861309" y="287.10092" fill="#000000" font-family="Arial" stroke-width=".13176">SooL</tspan></text>
   <text x="18.676411" y="285.59354" fill="#000000" fill-opacity=".87059" font-family="Arial" font-size="1.9006px" letter-spacing="0px" stroke-width=".13176" text-align="center" text-anchor="middle" word-spacing="0px" style="line-height:1.25" xml:space="preserve"><tspan x="18.676411" y="287.30554"/><tspan x="18.676411" y="289.68134" font-size="1.6582px">STM32 Object-Oriented Library</tspan></text>
   <g transform="matrix(.067901 0 0 .067901 -38.009 233.13)" stroke-width="2.9511">
    <path d="m716.25 544.49c0-13.623 3.6528-21.034 23.822-24.563 13.693-2.3999 31.251-2.6999 47.627 0 12.935 2.1352 23.822 11.77 23.822 24.563v44.945c0 13.182-10.57 23.981-23.822 23.981h-47.627c-16.164 0-29.787 13.782-29.787 29.363v21.564h-16.376c-13.852 0-21.917-9.9877-25.305-23.964-4.5704-18.776-4.3762-29.963 0-47.945 3.7939-15.687 15.917-23.964 29.769-23.964h65.52v-5.9997h-47.645z" fill="url(#linearGradient8513)"/>
    <path d="m811.53 688.32c0 13.623-11.823 20.523-23.822 23.964-18.052 5.188-32.54 4.3939-47.627 0-12.599-3.6704-23.822-11.17-23.822-23.964v-44.945c0-12.935 10.782-23.981 23.822-23.981h47.627c15.864 0 29.787-13.711 29.787-29.963v-20.964h17.858c13.87 0 20.399 10.305 23.822 23.964 4.7645 18.97 4.9762 33.157 0 47.945-4.8174 14.364-9.9701 23.964-23.822 23.964h-71.449v5.9997h47.627z" fill="url(#linearGradient8510)"/>
    <path d="m728.17 541.5c0-4.9762 3.988-8.9996 8.929-8.9996 4.9233 0 8.929 4.0233 8.929 8.9996 0 4.9586-4.0057 8.9819-8.929 8.9819-4.9409 0-8.929-4.0233-8.929-8.9819z" fill="#fff"/>
    <path d="m781.76 691.3c0-4.9586 4.0057-8.9819 8.929-8.9819 4.9409 0 8.929 4.0233 8.929 8.9819 0 4.9762-3.988 8.9996-8.929 8.9996-4.9233 0-8.929-4.0233-8.929-8.9996z" fill="#fff"/>
   </g>
   <path d="m6.337 275.84c1.0713 0.52259 3.1239 0.76332 5.5147 0.33923 2.3908-0.42408 4.4055-1.1317 8.1535-1.0711 3.7479 0.0607 8.5551 0.86551 10.6 1.5434 1.0225 0.33893 1.3546 0.6462 1.1975 0.92733" fill="none" stroke="#000" stroke-width=".13176px"/>
   <path d="m31.816 275.72c0.15718-0.28113-0.17493-0.5884-1.1975-0.92733-2.0451-0.67785-6.8522-1.4828-10.6-1.5434s-5.7627 0.64702-8.1535 1.0711c-2.3908 0.42409-4.4563 0.18995-5.5147-0.33922v2.64c1.0583 0.53499 3.1239 0.76332 5.5147 0.33923 2.3908-0.42408 4.4055-1.1317 8.1535-1.0711 3.7479 0.0607 8.5551 0.86551 10.6 1.5434 1.0225 0.33893 1.3546 0.6462 1.1975 0.92733z" fill="#002052" stroke="#000" stroke-linejoin="round" stroke-width=".13176px"/>
   <text fill="#ccff00" font-family="sans-serif" font-size="1.4111px" letter-spacing="0px" stroke-width=".13176" word-spacing="0px" style="line-height:6.61458302px" xml:space="preserve"><textPath stroke-width=".13176" xlink:href="#path2029-64"> C++ for STM32</textPath></text>
   <path d="m24.328 267.07c-3.1273 0-5.6622 2.5342-5.6622 5.6601v9.9048c0.47216-0.47194 0.94385-0.9436 1.4154-0.70797 0.47157 0.23563 0.94391 1.1794 1.4159 1.1793 0.47202-1.6e-4 0.94373-0.94303 1.4154-0.94309 0.47168-6e-5 0.9434 0.94326 1.4154 0.94309 0.47202-1.6e-4 0.94425-0.94303 1.4159-0.94309 0.47168-6e-5 0.9434 0.94326 1.4154 0.94309 0.47202-1.6e-4 0.94422-0.94299 1.4159-1.1787 0.47171-0.23575 0.94354 0.23579 1.4154 0.70745v-9.9048c0-3.1259-2.5354-5.6601-5.6627-5.6601zm-2.8314 2.8303a1.4156 1.415 0 0 1 1.4159 1.4149 1.4156 1.415 0 0 1-1.4159 1.4149 1.4156 1.415 0 0 1-1.4154-1.4149 1.4156 1.415 0 0 1 1.4154-1.4149zm5.6627 0a1.4156 1.415 0 0 1 1.4159 1.4149 1.4156 1.415 0 0 1-1.4159 1.4149 1.4156 1.415 0 0 1-1.4154-1.4149 1.4156 1.415 0 0 1 1.4154-1.4149z" fill="#39a9dc" stroke="#000" stroke-linejoin="round" stroke-opacity=".87059" stroke-width=".13197"/>
   <path d="m22.137 279.86c3.021-0.38589 6.0404-0.77158 7.9096-1.2403 0.93462-0.23435 1.5811-0.48934 1.7562-0.80482" fill="none" stroke="#aad400" stroke-linejoin="round" stroke-width=".13197"/>
   <path d="m30.078 279.13c-1.8692 0.4687-4.8887 0.85439-7.9096 1.2403v-2.64c3.021-0.38589 6.0404-0.77158 7.9096-1.2403 0.93462-0.23435 1.5811-0.48934 1.7562-0.80482v2.64c-0.1751 0.31548-0.82157 0.57047-1.7562 0.80482z" fill="#df5" stroke="#000" stroke-linejoin="round" stroke-width=".13197"/>
   <text fill="#002052" font-family="sans-serif" font-size="1.4111px" letter-spacing="0px" stroke-width=".13176" word-spacing="0px" style="line-height:6.61458302px" xml:space="preserve"><textPath fill="#002052" font-size="2.1167px" stroke-width=".13176" xlink:href="#path2057-0"> S.O.O.L</textPath></text>
  </g>
 </g>
</svg>
