<?xml version="1.0" encoding="UTF-8"?>
<svg width="25.781mm" height="16.301mm" version="1.1" viewBox="0 0 25.781 16.301" xmlns="http://www.w3.org/2000/svg" xmlns:cc="http://creativecommons.org/ns#" xmlns:dc="http://purl.org/dc/elements/1.1/" xmlns:rdf="http://www.w3.org/1999/02/22-rdf-syntax-ns#">
 <metadata>
  <rdf:RDF>
   <cc:Work rdf:about="">
    <dc:format>image/svg+xml</dc:format>
    <dc:type rdf:resource="http://purl.org/dc/dcmitype/StillImage"/>
    <dc:title/>
   </cc:Work>
  </rdf:RDF>
 </metadata>
 <g transform="translate(-101.26 -138.76)">
  <g transform="translate(24.406 -28.104)">
   <g fill="none" stroke="#000">
    <g stroke-linejoin="round">
     <path d="m76.999 176.55v-2.64c-0.24277-0.17643 2.593-1.3557 4.4543-1.349" stroke-width=".26458px"/>
     <g stroke-width=".33955px">
      <g transform="matrix(.77922 0 0 .77922 58.729 80.177)">
       <path d="m27.961 119.84-1.8709-1.8709"/>
       <path d="m28.897 118.91-1.8709-1.8709"/>
       <path d="m29.832 117.97-1.8709-1.8709"/>
       <path d="m30.768 117.04-1.8709-1.8709"/>
       <path d="m31.703 116.1-1.8709-1.8709"/>
       <path d="m32.638 115.17-1.8709-1.8709"/>
       <path d="m33.574 114.23-1.8709-1.8709"/>
       <path d="m34.509 113.29-1.8709-1.8709"/>
      </g>
      <g transform="matrix(.55099 -.55099 .55099 .55099 -.031427 128)">
       <path d="m26.458 117.08h1.4548"/>
       <path d="m26.458 118.41h2.6458"/>
       <path d="m26.458 119.73h2.6458"/>
       <path d="m26.458 121.05h2.6458"/>
       <path d="m26.458 122.38h2.6458"/>
       <path d="m26.458 123.7h2.6458"/>
       <path d="m26.458 125.02h2.6458"/>
       <path d="m26.458 126.34h2.6458"/>
      </g>
      <g transform="matrix(-.77922 0 0 .77922 115.2 80.177)">
       <path d="m31.703 116.1-0.33847-0.33847"/>
       <path d="m32.638 115.17-1.8709-1.8709"/>
       <path d="m33.574 114.23-1.8709-1.8709"/>
       <path d="m34.509 113.29-1.8709-1.8709"/>
      </g>
      <g transform="matrix(-.55099 -.55099 -.55099 .55099 173.96 128)">
       <path d="m28.165 123.7h0.93946"/>
       <path d="m26.843 125.02h2.2617"/>
       <path d="m26.458 126.34h2.6458"/>
      </g>
     </g>
    </g>
    <path d="m90.632 170.72-3.6354-3.6354-7.3865 7.3865m1.5153 2.6174 5.8712 5.8712 3.2923-3.2923" stroke-width=".26458px"/>
    <path d="m101.61 176.16v-3.5037c0-3.1259-2.5354-5.6601-5.6627-5.6601-3.1273 0-5.6622 2.5342-5.6622 5.6601v9.9048c0.47216-0.47195 0.94385-0.9436 1.4154-0.70797 0.47157 0.23563 0.94391 1.1794 1.4159 1.1793 0.47202-1.6e-4 0.94374-0.94303 1.4154-0.94309 0.47168-5e-5 0.9434 0.94327 1.4154 0.94309 0.47202-1.6e-4 0.94425-0.94303 1.4159-0.94309 0.47168-5e-5 0.9434 0.94327 1.4154 0.94309 0.47202-1.6e-4 0.94422-0.94299 1.4159-1.1787 0.47171-0.23575 0.94354 0.23579 1.4154 0.70745v-3.747m-8.4941-8.9876c0.78192-1.6e-4 1.4159 0.63334 1.4159 1.4149-4.2e-5 0.78156-0.63401 1.4151-1.4159 1.4149-0.78172-1.2e-4 -1.4154-0.63355-1.4154-1.4149 4.2e-5 -0.78135 0.6337-1.4148 1.4154-1.4149zm5.6627 0c0.78192-1.6e-4 1.4159 0.63335 1.4159 1.4149-4e-5 0.78155-0.63401 1.4151-1.4159 1.4149-0.78172-1.2e-4 -1.4154-0.63355-1.4154-1.4149 4.2e-5 -0.78135 0.6337-1.4148 1.4154-1.4149z" stroke-linejoin="round" stroke-width=".265"/>
   </g>
   <g transform="translate(70.649 -100.07)">
    <path d="m19.639 273.25c-3.5072-9e-3 -5.4653 0.66512-7.7741 1.0747-2.3908 0.42409-4.4563 0.18995-5.5147-0.33922v2.64c1.0583 0.53499 3.1239 0.76332 5.5147 0.33923 2.3095-0.40967 4.2682-1.084 7.7773-1.0747m12.174-0.16577c0.13795-0.24674-0.101-0.51362-0.85284-0.80436" fill="none" stroke="#000" stroke-linejoin="round" stroke-width=".26458px"/>
   </g>
   <g transform="translate(70.649 -100.07)">
    <path d="m30.078 279.13c-1.8692 0.4687-4.8887 0.85439-7.9096 1.2403v-2.64c3.021-0.38589 6.0404-0.77158 7.9096-1.2403 0.93462-0.23435 1.5811-0.48934 1.7562-0.80482v2.64c-0.1751 0.31548-0.82157 0.57047-1.7562 0.80482z" fill="none" stroke="#000" stroke-linejoin="round" stroke-width=".265"/>
   </g>
  </g>
 </g>
</svg>
